Coordinates
version=1
nRows=4
nColumns=107
inDegrees=yes

Units are S.I. units (second, meters, Newtons, ...)
If the header above contains a line with 'inDegrees', this indicates whether rotational values are in degrees (yes) or radians (no).

endheader
time	sternoclavicular_r2	sternoclavicular_r3	unrotscap_r3	unrotscap_r2	acromioclavicular_r2	acromioclavicular_r3	acromioclavicular_r1	unrothum_r1	unrothum_r3	unrothum_r2	elv_angle	shoulder_elv	shoulder1_r2	shoulder_rot	elbow_flexion	pro_sup	deviation	flexion	proximal_distal_r1	proximal_distal_r3	cmc_flexion	cmc_abduction	mp_flexion	ip_flexion	mcp2_flexion	mcp2_abduction	pm2_flexion	md2_flexion	mcp3_flexion	mcp3_abduction	pm3_flexion	md3_flexion	mcp4_flexion	mcp4_abduction	pm4_flexion	md4_flexion	mcp5_flexion	mcp5_abduction	pm5_flexion	md5_flexion	bicpt_tx	bicpt_ty	bicpt_tz	bicpt2_tx	bicpt2_ty	bicpt2_tz	ptpt_tx	ptpt_ty	ptpt_tz	FCUpt_tx	FCUpt_ty	FCUpt_tz	EDCpt_tx	EDCpt_ty	EDCpt_tz	APLpt_tx	APLpt_ty	APLpt_tz	FPLpt_tx	FPLpt_ty	FPLpt_tz	FPLpt2_tx	FPLpt2_ty	FPLpt2_tz	PEC1pt2_tx	PEC1pt2_ty	PEC1pt2_tz	PEC1pt3_tx	PEC1pt3_ty	PEC1pt3_tz	PEC2pt2_tx	PEC2pt2_ty	PEC2pt2_tz	PEC2pt3_tx	PEC2pt3_ty	PEC2pt3_tz	PEC3pt2_tx	PEC3pt2_ty	PEC3pt2_tz	PEC3pt3_tx	PEC3pt3_ty	PEC3pt3_tz	DELT2pt2a_tx	DELT2pt2a_ty	DELT2pt2a_tz	DELT2pt2_tx	DELT2pt2_ty	DELT2pt2_tz	LAT1pt2_tx	LAT1pt2_ty	LAT1pt2_tz	LAT1pt3_tx	LAT1pt3_ty	LAT1pt3_tz	LAT2pt2_tx	LAT2pt2_ty	LAT2pt2_tz	LAT2pt3_tx	LAT2pt3_ty	LAT2pt3_tz	LAT3pt2_tx	LAT3pt2_ty	LAT3pt2_tz	LAT3pt3_tx	LAT3pt3_ty	LAT3pt3_tz
      1.93333333	     -0.31155422	      0.13195966	     -0.13195966	      0.31155422	     -0.06308339	      0.50981779	      0.22915959	     -0.22915959	     -0.50981779	      0.06308339	    102.51467470	     73.76323104	     -1.78921861	    -38.82396121	     31.44994519	     84.87608377	      0.32221304	     -0.42580342	      0.35231015	     -0.21290171	     23.83241187	    -21.98454952	    -14.06424635	    -12.85213101	     24.42529967	      3.61777661	     21.98406246	      3.59100887	     22.17816327	     -0.82172665	     19.70014381	     18.41190071	      7.30120267	     -6.28049796	     39.67254610	     27.92180458	     -4.11436998	    -13.22547591	     45.63839816	      5.29037374	      0.00094027	     -0.03120464	     -0.00488061	      0.01435464	     -0.01874353	     -0.00126762	      0.00127862	     -0.06895518	     -0.00688722	      0.01260909	     -0.18227562	      0.00005332	     -0.01018511	      0.00351653	     -0.00072147	      0.00028382	      0.00011353	      0.00056764	      0.00036329	      0.00108987	      0.00061305	      0.00000277	     -0.00028026	     -0.00033632	      0.00241780	      0.00848278	      0.00590106	     -0.00790906	      0.01909650	     -0.01811299	      0.00241780	      0.00848278	      0.00590106	      0.00053273	      0.01770319	     -0.00930237	      0.00385589	      0.00471717	      0.01573823	      0.00000000	      0.00727352	      0.00000000	     -0.00692555	     -0.03200507	     -0.00599436	      0.02226895	     -0.00106813	     -0.01222707	     -0.00086057	      0.01442482	     -0.00590106	      0.00237682	      0.02081764	     -0.01721144	     -0.00577812	      0.01249878	     -0.00528637	     -0.01204800	      0.02639087	     -0.02954630	     -0.02262074	      0.01397405	     -0.00708947	     -0.01499854	      0.03048883	     -0.03692263
      1.96666667	     -0.31480725	      0.13333749	     -0.13333749	      0.31480725	     -0.06374207	      0.51514095	      0.23155231	     -0.23155231	     -0.51514095	      0.06374207	    101.39769600	     74.53341543	     -1.76972365	    -34.22970171	     31.33484579	     81.61728650	      0.37265893	     -0.31990423	      0.39208081	     -0.15995211	     23.39994854	    -21.99057580	    -13.73256645	    -16.77391528	     22.78344638	      3.06485833	     20.98062165	      1.39694533	     21.17874733	     -1.25579607	     17.33738589	     18.37607287	      6.46771825	     -6.20530727	     36.24593476	     29.09618694	     -5.93320889	    -13.19647242	     44.40104537	      5.21321073	      0.00093646	     -0.03119145	     -0.00487849	      0.01467114	     -0.01871226	     -0.00181321	      0.00151940	     -0.06879948	     -0.00662471	      0.01223747	     -0.18238345	     -0.00002974	     -0.00979405	      0.00334045	     -0.00062165	      0.00024164	      0.00009665	      0.00048327	      0.00030929	      0.00092788	      0.00052193	      0.00000373	     -0.00028082	     -0.00033698	      0.00244304	      0.00857135	      0.00596268	     -0.00799165	      0.01929589	     -0.01830211	      0.00244304	      0.00857135	      0.00596268	      0.00053830	      0.01788803	     -0.00939950	      0.00388561	      0.00476642	      0.01581327	      0.00000000	      0.00742718	      0.00000000	     -0.00699787	     -0.03233925	     -0.00612200	      0.02063379	     -0.00090387	     -0.00966220	     -0.00086956	      0.01457544	     -0.00596268	      0.00240163	      0.02103500	     -0.01739114	     -0.00583846	      0.01262928	     -0.00534157	     -0.01217380	      0.02666642	     -0.02985480	     -0.02285693	      0.01411995	     -0.00716350	     -0.01515514	      0.03080717	     -0.03730815
      2.00000000	     -0.31500469	      0.13342112	     -0.13342112	      0.31500469	     -0.06378204	      0.51546402	      0.23169753	     -0.23169753	     -0.51546402	      0.06378204	    101.39103625	     74.58015939	     -1.76960741	    -34.24425417	     31.34380720	     81.61692741	      0.37271111	     -0.31998792	      0.39211972	     -0.15999396	     23.39775379	    -21.99035835	    -13.73407074	    -16.77446733	     22.77410251	      3.06527163	     20.97857922	      1.39546879	     21.17396986	     -1.25681179	     17.33650574	     18.37571335	      6.46662204	     -6.20558612	     36.24465062	     29.09586182	     -5.93464596	    -13.19653406	     44.39959301	      5.21309015	      0.00093676	     -0.03119248	     -0.00487865	      0.01467100	     -0.01871470	     -0.00181316	      0.00151943	     -0.06879947	     -0.00662468	      0.01223746	     -0.18238344	     -0.00002969	     -0.00979401	      0.00334045	     -0.00062169	      0.00024164	      0.00009666	      0.00048329	      0.00030930	      0.00092791	      0.00052195	      0.00000374	     -0.00028080	     -0.00033696	      0.00244457	      0.00857673	      0.00596642	     -0.00799666	      0.01930799	     -0.01831359	      0.00244457	      0.00857673	      0.00596642	      0.00053863	      0.01789925	     -0.00940539	      0.00388741	      0.00476941	      0.01581777	      0.00000000	      0.00743656	      0.00000000	     -0.00700225	     -0.03235953	     -0.00612979	      0.02063902	     -0.00090439	     -0.00967031	     -0.00087010	      0.01458458	     -0.00596642	      0.00240314	      0.02104820	     -0.01740205	     -0.00584212	      0.01263720	     -0.00534492	     -0.01218144	      0.02668315	     -0.02987352	     -0.02287127	      0.01412881	     -0.00716799	     -0.01516465	      0.03082649	     -0.03733154
      2.03333333	     -0.31225117	      0.13225486	     -0.13225486	      0.31225117	     -0.06322451	      0.51095826	      0.22967222	     -0.22967222	     -0.51095826	      0.06322451	    102.33562875	     73.92824055	     -1.78609366	    -37.98722956	     31.31520562	     83.82578653	      0.33648634	     -0.41263828	      0.36398547	     -0.20631914	     23.41856523	    -21.85098524	    -14.80248337	    -18.95496964	     22.43092872	      3.28187053	     21.36106575	     -4.29158075	     22.24197250	     -1.48650436	     16.38436068	     17.12928023	      8.37330378	     -6.24456358	     34.20478448	     27.63432127	     -3.56246329	    -13.06310333	     40.53378473	      5.26140574	      0.00093581	     -0.03118920	     -0.00487813	      0.01445924	     -0.01870693	     -0.00144506	      0.00135622	     -0.06890500	     -0.00680262	      0.01248897	     -0.18231069	      0.00002569	     -0.01005907	      0.00345943	     -0.00068869	      0.00027961	      0.00011184	      0.00055922	      0.00035790	      0.00107369	      0.00060395	      0.00000369	     -0.00028086	     -0.00033704	      0.00242321	      0.00850175	      0.00591426	     -0.00792676	      0.01913922	     -0.01815351	      0.00242321	      0.00850175	      0.00591426	      0.00053393	      0.01774279	     -0.00932318	      0.00386227	      0.00472772	      0.01575443	      0.00000000	      0.00730630	      0.00000000	     -0.00694105	     -0.03207667	     -0.00602159	      0.02199209	     -0.00103789	     -0.01174490	     -0.00086250	      0.01445709	     -0.00591426	      0.00238213	      0.02086421	     -0.01724994	     -0.00579105	      0.01252674	     -0.00529820	     -0.01207496	      0.02644990	     -0.02961239	     -0.02267135	      0.01400531	     -0.00710533	     -0.01503209	      0.03055703	     -0.03700522
